<?xml version="1.0" encoding="UTF-8"?>
<svg xmlns="http://www.w3.org/2000/svg" xmlns:xlink="http://www.w3.org/1999/xlink" width="30px" height="30px" viewBox="0 0 30 30" version="1.1">
<g id="surface1">
<path style=" stroke:none;fill-rule:nonzero;fill:rgb(0%,0%,0%);fill-opacity:1;" d="M 30 7.800781 C 30 17.351562 17.335938 30 7.800781 30 C 5.710938 30 3.761719 29.214844 2.324219 27.777344 L 1.074219 26.335938 C -0.375 24.886719 -0.375 22.4375 1.136719 20.925781 C 1.175781 20.886719 4.1875 18.574219 4.1875 18.574219 C 5.6875 17.148438 8.050781 17.148438 9.535156 18.574219 L 11.363281 20.035156 C 15.363281 18.335938 18.199219 15.488281 20.023438 11.351562 L 18.574219 9.527344 C 17.136719 8.039062 17.136719 5.664062 18.574219 4.175781 C 18.574219 4.175781 20.886719 1.164062 20.925781 1.125 C 22.4375 -0.386719 24.886719 -0.386719 26.398438 1.125 L 27.710938 2.261719 C 29.210938 3.75 30 5.699219 30 7.785156 Z M 30 7.800781 "/>
</g>
</svg>
