<?xml version="1.0" encoding="utf-8"?>
<!-- Generator: Adobe Illustrator 23.0.5, SVG Export Plug-In . SVG Version: 6.00 Build 0)  -->
<svg version="1.1" id="Layer_1" xmlns="http://www.w3.org/2000/svg" xmlns:xlink="http://www.w3.org/1999/xlink" x="0px" y="0px"
	 viewBox="0 0 1080 1080" style="enable-background:new 0 0 1080 1080;" xml:space="preserve">
<style type="text/css">
	.st0{fill:url(#SVGID_1_);}
	.st1{fill:url(#SVGID_2_);}
	.st2{fill:#BCBEC0;}
	.st3{fill:url(#SVGID_3_);}
	.st4{fill:url(#SVGID_4_);}
	.st5{stroke:#ffffff;stroke-miterlimit:10;}
</style>
<linearGradient id="SVGID_1_" gradientUnits="userSpaceOnUse" x1="191.5415" y1="417.8507" x2="377.4464" y2="417.8507">
	<stop  offset="0" style="stop-color:#E02D26"/>
	<stop  offset="1" style="stop-color:#F26B3C"/>
</linearGradient>
<path class="st0" d="M377.45,355.16l-1.06,19.05c-2.1,0.03-4.21,0.12-6.29,0.27l-0.04,0c-71.77,2.16-131.46,57.58-138.28,129.76
	l-19.51-1.09c-1.48-10.59-9.27-20.28-20.72-23.85c4.99-13.74,9.97-27.47,14.96-41.2c10.91,3.86,22.9,0.68,29.8-7.7
	c8.1-9.85,7.68-25.08-1.63-35.3c10.6-9.84,21.2-19.7,31.81-29.54c8.99,10.54,24.16,12.94,35.29,6.08
	c9.9-6.1,14.79-18.43,11.78-30.26c14.28-3.31,28.56-6.6,42.84-9.9C357.87,343.27,366.58,352.57,377.45,355.16z"/>
<linearGradient id="SVGID_2_" gradientUnits="userSpaceOnUse" x1="386.4208" y1="381.5526" x2="572.9925" y2="381.5526">
	<stop  offset="0" style="stop-color:#E02D26"/>
	<stop  offset="1" style="stop-color:#F26B3C"/>
</linearGradient>
<path class="st1" d="M572.99,419.08c-28.83,3.04-57.66,6.08-86.48,9.12c-6.74-8.41-14.42-16.06-22.88-22.77
	c-0.12-0.1-0.23-0.19-0.35-0.28c-0.51-0.41-1.03-0.82-1.55-1.21c-13.48-10.33-28.86-18.35-45.6-23.39c0-0.01-0.01-0.01-0.02,0
	c-9.14-3.1-19.06-5.28-29.7-6.04l1.05-18.92c10.67-1.6,19.81-9.64,22.65-20.67c14.05,4.84,28.11,9.67,42.17,14.5
	c-4.93,12.1-0.32,26.04,10.64,32.68c10.56,6.4,24.45,4.48,33.04-4.72c9.37,9.99,18.73,19.98,28.1,29.97
	C540.38,411.25,556.69,415.16,572.99,419.08z"/>
<path class="st2" d="M360.46,660.59l-1.06,19.06c-11.08,1.37-20.77,9.65-23.56,21.21c-13.83-4.86-27.65-9.72-41.48-14.59
	c4.31-11.43,0.81-24.22-8.35-31.38c-10.3-8.05-25.64-7.35-35.74,2.13c-9.45-10.96-18.9-21.93-28.34-32.89
	c10.39-9.13,12.49-24.22,5.53-34.91c-5.93-9.1-17.49-13.59-28.76-10.96c-3.44-14.2-6.86-28.4-10.3-42.6
	c12.19-2.37,21.19-11.67,23.48-22.48l19.22,1.07c0.01,0.13,0.03,0.24,0.05,0.36c-1.62,70.04,47.58,130.2,114.78,143.78
	c0.03,0.01,0.06,0.01,0.1,0.02c4.48,0.9,9.04,1.59,13.68,2.07c0.04,0,0.06,0.01,0.1,0.01C360.03,660.54,360.25,660.56,360.46,660.59
	z"/>
<path class="st2" d="M586.28,619.37c-25.12,8.22-50.25,16.45-75.37,24.67c-10.42,8.89-20.83,17.78-31.25,26.67
	c-7.51-10.09-21.11-13.55-32.31-8.35c-11.64,5.38-17.76,18.73-14.2,31.3c-14.51,3.24-29.02,6.49-43.52,9.74
	c-1.6-11.27-9.79-20.28-20.22-23.06l1.05-18.92c8.57,0.34,16.79-0.28,24.58-1.62c0.03,0,0.06-0.01,0.09-0.01
	c31.44-4.52,59.79-19.31,81.32-41.04C513.07,618.96,549.67,619.17,586.28,619.37z"/>
<linearGradient id="SVGID_3_" gradientUnits="userSpaceOnUse" x1="240.2173" y1="756.8176" x2="490.957" y2="756.8176" gradientTransform="matrix(0.9985 0.0555 -0.0555 0.9985 36.4199 -333.9187)">
	<stop  offset="0" style="stop-color:#E02D26"/>
	<stop  offset="0.486" style="stop-color:#F26B3C"/>
	<stop  offset="1" style="stop-color:#E02D26"/>
</linearGradient>
<path class="st3" d="M230.4,504.16l25.75,1.43c6.04-60.79,57.73-106.98,118.83-106.16l1.43-25.75
	C301.1,372.09,237.26,429.15,230.4,504.16z M463.63,405.42c-0.12-0.1-0.23-0.19-0.35-0.28c-0.51-0.41-1.03-0.82-1.55-1.21
	c-21.07-16.44-46.91-27.16-75.3-29.7L385,399.98c26.61,2.59,50.42,13.92,68.75,30.96l32.03-3.28
	C479.23,419.48,471.81,412.01,463.63,405.42z"/>
<linearGradient id="SVGID_4_" gradientUnits="userSpaceOnUse" x1="240.1994" y1="905.4444" x2="491.0996" y2="905.4444" gradientTransform="matrix(0.9985 0.0555 -0.0555 0.9985 36.4199 -333.9187)">
	<stop  offset="0" style="stop-color:#606365"/>
	<stop  offset="0.5419" style="stop-color:#FFFFFF"/>
	<stop  offset="1" style="stop-color:#606365"/>
</linearGradient>
<path class="st4" d="M435.93,617.39c-18.6,11.63-40.62,18.2-64.01,17.87l-1.43,25.75c40.66,0.88,77.98-15.33,104.81-42.24
	L435.93,617.39z M255.58,515.61l-25.75-1.43c-1.6,70.53,48.24,131.05,116.11,144.21c0.03,0.01,0.06,0.01,0.1,0.02
	c4.73,0.92,9.54,1.59,14.43,2.04l1.43-25.75C300.95,628.72,254.64,576.87,255.58,515.61z"/>
<path class="st5" d="M437.8,492.66c-3.39-8.25-8.44-15.97-15.17-22.65c-26.86-26.65-70.24-26.48-96.87,0.37
	c-6.39,6.45-11.25,13.85-14.57,21.75c-1.9,4.55-3.29,9.25-4.16,14.02l134.82,0.55l27.17,0.1c1.03,8.33,0.97,16.77-0.18,25.08
	c-0.67,4.72-1.68,9.41-3.05,14c-4.35,14.58-12.24,28.34-23.71,39.9c-37.09,37.39-97.48,37.65-134.87,0.55
	c-11.95-11.85-20.11-26.09-24.46-41.19l28.48,0.11c3.37,8.01,8.35,15.51,14.89,22c26.86,26.65,70.24,26.48,96.89-0.39
	c6.23-6.28,11-13.47,14.3-21.12c1.95-4.53,3.38-9.21,4.31-14l-134.6-0.55l-27.21-0.12c-1.08-8.31-1.08-16.75,0.03-25.05
	c0.62-4.72,1.6-9.41,2.94-14.02c4.3-14.83,12.26-28.82,23.9-40.55c37.08-37.38,97.46-37.63,134.86-0.54
	c12.12,12.03,20.34,26.49,24.63,41.84L437.8,492.66z"/>
<g>
	<path d="M541.06,498.5c0,2.22-0.42,4.41-1.25,6.58c-0.83,2.17-2.13,4.09-3.89,5.78c-1.76,1.69-4.04,3.06-6.84,4.12
		c-2.8,1.06-6.19,1.59-10.17,1.59c-3.28,0-6.27-0.21-8.99-0.64s-5.14-0.97-7.26-1.63c-0.4-0.1-0.77-0.28-1.1-0.53
		c-0.33-0.25-0.49-0.58-0.49-0.98v-11.26c0-0.4,0.11-0.78,0.34-1.13s0.64-0.48,1.25-0.38c0.81,0.1,1.86,0.21,3.17,0.34
		c1.31,0.13,2.73,0.26,4.27,0.42c1.54,0.15,3.07,0.28,4.61,0.38c1.54,0.1,2.93,0.15,4.2,0.15c1.11,0,1.85-0.21,2.23-0.64
		c0.38-0.43,0.57-0.99,0.57-1.7c0-0.4-0.14-0.77-0.42-1.1c-0.28-0.33-0.84-0.74-1.7-1.25l-11.34-6.58c-1.81-1.06-3.3-2.19-4.46-3.4
		c-1.16-1.21-2.08-2.48-2.76-3.82c-0.68-1.33-1.16-2.72-1.44-4.16c-0.28-1.44-0.42-2.91-0.42-4.42c0-2.07,0.31-4.03,0.94-5.9
		c0.63-1.86,1.71-3.49,3.25-4.87c1.54-1.39,3.62-2.49,6.24-3.33c2.62-0.83,5.9-1.25,9.83-1.25c1.61,0,3.33,0.06,5.14,0.19
		c1.81,0.13,3.56,0.29,5.25,0.49c1.69,0.2,3.22,0.43,4.61,0.68c1.39,0.25,2.51,0.5,3.36,0.76c0.4,0.1,0.76,0.28,1.06,0.53
		c0.3,0.25,0.45,0.58,0.45,0.98v11.26c0,0.45-0.09,0.84-0.26,1.17c-0.18,0.33-0.59,0.44-1.25,0.34c-1.01-0.1-2.27-0.21-3.78-0.34
		c-1.51-0.13-3.11-0.25-4.8-0.38c-1.69-0.13-3.39-0.23-5.1-0.3c-1.71-0.08-3.28-0.11-4.69-0.11c-0.66,0-1.08,0.13-1.28,0.38
		c-0.2,0.25-0.3,0.53-0.3,0.83c0,0.35,0.15,0.68,0.45,0.98c0.3,0.3,1.08,0.78,2.34,1.44l10.73,5.67c3.43,1.81,5.89,3.96,7.41,6.42
		S541.06,495.22,541.06,498.5z"/>
	<path d="M594.19,479.15c0,3.93-0.76,7.17-2.27,9.71c-1.51,2.54-3.45,4.56-5.82,6.05c-2.37,1.49-4.98,2.52-7.82,3.1
		c-2.85,0.58-5.58,0.87-8.2,0.87c-0.76,0-1.45-0.01-2.08-0.04c-0.63-0.02-1.47-0.06-2.53-0.11v15.57c0,0.4-0.15,0.76-0.45,1.06
		c-0.3,0.3-0.66,0.45-1.06,0.45h-14.51c-0.4,0-0.77-0.1-1.1-0.3c-0.33-0.2-0.49-0.5-0.49-0.91v-48.37c0-1.16,0.09-2.12,0.26-2.87
		c0.18-0.75,0.46-1.37,0.87-1.85c0.4-0.48,0.94-0.84,1.63-1.1c0.68-0.25,1.52-0.45,2.53-0.6c0.96-0.15,2.1-0.28,3.44-0.38
		c1.33-0.1,2.76-0.19,4.27-0.26c1.51-0.08,3.04-0.14,4.57-0.19c1.54-0.05,2.96-0.08,4.27-0.08c2.77,0,5.6,0.29,8.5,0.87
		c2.9,0.58,5.53,1.6,7.9,3.06c2.37,1.46,4.31,3.46,5.82,6.01c1.51,2.54,2.27,5.81,2.27,9.79V479.15z M576.51,478.62
		c0-1.71-0.59-2.95-1.78-3.7c-1.18-0.76-2.73-1.13-4.65-1.13h-4.61v10.2h4.61c1.91,0,3.46-0.4,4.65-1.21
		c1.18-0.81,1.78-2.01,1.78-3.63V478.62z"/>
	<path d="M637.27,514.22c0,0.4-0.15,0.74-0.45,1.02c-0.3,0.28-0.66,0.44-1.06,0.49c-1.56,0.2-3.65,0.39-6.27,0.57
		c-2.62,0.18-5.59,0.26-8.92,0.26c-2.37,0-4.76-0.19-7.18-0.57c-2.42-0.38-4.6-1.2-6.54-2.46c-1.94-1.26-3.53-3.05-4.76-5.37
		c-1.24-2.32-1.85-5.42-1.85-9.3v-22.3c0-3.88,0.62-6.98,1.85-9.3c1.23-2.32,2.82-4.11,4.76-5.37c1.94-1.26,4.12-2.08,6.54-2.46
		c2.42-0.38,4.81-0.57,7.18-0.57c3.33,0,6.3,0.09,8.92,0.26c2.62,0.18,4.71,0.37,6.27,0.57c0.4,0.05,0.76,0.21,1.06,0.49
		c0.3,0.28,0.45,0.62,0.45,1.02v11.41c0,0.4-0.15,0.76-0.45,1.06c-0.3,0.3-0.66,0.45-1.06,0.45h-15.19c-0.96,0-1.61,0.16-1.97,0.49
		c-0.35,0.33-0.53,0.97-0.53,1.93v4.08h17.69c0.4,0,0.76,0.15,1.06,0.45c0.3,0.3,0.45,0.66,0.45,1.06v10.66
		c0,0.4-0.15,0.76-0.45,1.06c-0.3,0.3-0.66,0.45-1.06,0.45h-17.69v4.54c0,0.96,0.18,1.6,0.53,1.93c0.35,0.33,1.01,0.49,1.97,0.49
		h15.19c0.4,0,0.76,0.15,1.06,0.45c0.3,0.3,0.45,0.66,0.45,1.06V514.22z"/>
	<path d="M680.2,513.46c0,0.5-0.1,0.84-0.3,1.02c-0.2,0.18-0.63,0.39-1.29,0.64c-1.21,0.4-2.63,0.74-4.27,1.02
		c-1.64,0.28-3.51,0.42-5.63,0.42c-8.21,0-14.31-2.22-18.29-6.65c-3.98-4.43-5.97-10.81-5.97-19.12v-6.12
		c0-8.36,1.99-14.75,5.97-19.16c3.98-4.41,10.08-6.61,18.29-6.61c2.12,0,4.03,0.14,5.74,0.42c1.71,0.28,3.1,0.62,4.16,1.02
		c0.65,0.25,1.08,0.47,1.29,0.64c0.2,0.18,0.3,0.52,0.3,1.02v11.94c0,1.06-0.5,1.51-1.51,1.36c-0.81-0.1-1.99-0.24-3.55-0.42
		c-1.56-0.18-3.15-0.26-4.76-0.26c-1.16,0-2.23,0.11-3.21,0.34c-0.98,0.23-1.81,0.71-2.49,1.44c-0.68,0.73-1.21,1.75-1.59,3.06
		c-0.38,1.31-0.57,3.05-0.57,5.22v6.12c0,2.27,0.19,4.07,0.57,5.4c0.38,1.34,0.92,2.34,1.63,3.02c0.71,0.68,1.54,1.12,2.49,1.32
		c0.96,0.2,2.04,0.3,3.25,0.3c1.36,0,2.66-0.06,3.89-0.19c1.23-0.13,2.68-0.29,4.35-0.49c0.55-0.1,0.95-0.05,1.17,0.15
		c0.23,0.2,0.34,0.6,0.34,1.21V513.46z"/>
	<path d="M705.22,514.29c0,0.4-0.15,0.76-0.45,1.06c-0.3,0.3-0.66,0.45-1.06,0.45h-14.74c-0.4,0-0.77-0.15-1.1-0.45
		c-0.33-0.3-0.49-0.65-0.49-1.06v-53.13c0-0.4,0.16-0.76,0.49-1.06c0.33-0.3,0.69-0.45,1.1-0.45h14.74c0.4,0,0.76,0.15,1.06,0.45
		c0.3,0.3,0.45,0.66,0.45,1.06V514.29z"/>
	<path d="M745.5,515.8c-0.4,0-0.74-0.15-1.02-0.45c-0.28-0.3-0.47-0.65-0.57-1.06l-1.36-8.46h-11.49l-1.36,8.46
		c-0.1,0.4-0.29,0.76-0.57,1.06c-0.28,0.3-0.62,0.45-1.02,0.45H712.4c-0.5,0-0.84-0.15-1.02-0.45c-0.18-0.3-0.21-0.65-0.11-1.06
		l8.99-45.65c0.35-1.91,0.98-3.5,1.89-4.76c0.91-1.26,2.07-2.25,3.48-2.99c1.41-0.73,3.05-1.25,4.91-1.55
		c1.86-0.3,3.96-0.45,6.27-0.45c2.32,0,4.41,0.15,6.27,0.45c1.86,0.3,3.49,0.82,4.88,1.55c1.38,0.73,2.53,1.73,3.44,2.99
		c0.91,1.26,1.56,2.85,1.96,4.76l8.99,45.65c0.1,0.4,0.06,0.76-0.11,1.06c-0.18,0.3-0.52,0.45-1.02,0.45H745.5z M737.49,474.31
		c-0.05-0.3-0.11-0.54-0.19-0.72c-0.08-0.18-0.24-0.26-0.49-0.26c-0.25,0-0.42,0.09-0.49,0.26c-0.08,0.18-0.14,0.42-0.19,0.72
		l-2.8,17.61h6.95L737.49,474.31z"/>
	<path d="M801.28,514.22c0,0.4-0.15,0.73-0.45,0.98c-0.3,0.25-0.66,0.43-1.06,0.53c-1.51,0.25-3.3,0.45-5.37,0.6
		c-2.07,0.15-4.08,0.23-6.05,0.23c-2.37,0-4.76-0.19-7.18-0.57c-2.42-0.38-4.6-1.2-6.54-2.46c-1.94-1.26-3.53-3.05-4.76-5.37
		c-1.24-2.32-1.85-5.42-1.85-9.3v-37.71c0-0.4,0.16-0.76,0.49-1.06c0.33-0.3,0.69-0.45,1.1-0.45h14.74c0.4,0,0.76,0.15,1.06,0.45
		c0.3,0.3,0.45,0.66,0.45,1.06v37.71c0,0.96,0.18,1.6,0.53,1.93c0.35,0.33,1.01,0.49,1.97,0.49h11.41c0.4,0,0.76,0.15,1.06,0.45
		c0.3,0.3,0.45,0.66,0.45,1.06V514.22z"/>
	<path d="M825.54,514.29c0,0.4-0.15,0.76-0.45,1.06c-0.3,0.3-0.66,0.45-1.06,0.45h-14.74c-0.4,0-0.77-0.15-1.1-0.45
		c-0.33-0.3-0.49-0.65-0.49-1.06v-53.13c0-0.4,0.16-0.76,0.49-1.06c0.33-0.3,0.69-0.45,1.1-0.45h14.74c0.4,0,0.76,0.15,1.06,0.45
		c0.3,0.3,0.45,0.66,0.45,1.06V514.29z"/>
	<path d="M874.59,498.5c0,2.22-0.42,4.41-1.25,6.58c-0.83,2.17-2.13,4.09-3.89,5.78c-1.76,1.69-4.04,3.06-6.84,4.12
		c-2.8,1.06-6.19,1.59-10.17,1.59c-3.28,0-6.27-0.21-8.99-0.64s-5.14-0.97-7.26-1.63c-0.4-0.1-0.77-0.28-1.1-0.53
		c-0.33-0.25-0.49-0.58-0.49-0.98v-11.26c0-0.4,0.11-0.78,0.34-1.13s0.64-0.48,1.25-0.38c0.81,0.1,1.86,0.21,3.17,0.34
		c1.31,0.13,2.73,0.26,4.27,0.42c1.54,0.15,3.07,0.28,4.61,0.38c1.54,0.1,2.93,0.15,4.2,0.15c1.11,0,1.85-0.21,2.23-0.64
		c0.38-0.43,0.57-0.99,0.57-1.7c0-0.4-0.14-0.77-0.42-1.1c-0.28-0.33-0.84-0.74-1.7-1.25l-11.34-6.58c-1.81-1.06-3.3-2.19-4.46-3.4
		c-1.16-1.21-2.08-2.48-2.76-3.82c-0.68-1.33-1.16-2.72-1.44-4.16c-0.28-1.44-0.42-2.91-0.42-4.42c0-2.07,0.31-4.03,0.94-5.9
		c0.63-1.86,1.71-3.49,3.25-4.87c1.54-1.39,3.62-2.49,6.24-3.33c2.62-0.83,5.9-1.25,9.83-1.25c1.61,0,3.33,0.06,5.14,0.19
		c1.81,0.13,3.56,0.29,5.25,0.49c1.69,0.2,3.22,0.43,4.61,0.68c1.39,0.25,2.51,0.5,3.36,0.76c0.4,0.1,0.76,0.28,1.06,0.53
		c0.3,0.25,0.45,0.58,0.45,0.98v11.26c0,0.45-0.09,0.84-0.26,1.17c-0.18,0.33-0.59,0.44-1.25,0.34c-1.01-0.1-2.27-0.21-3.78-0.34
		c-1.51-0.13-3.11-0.25-4.8-0.38c-1.69-0.13-3.39-0.23-5.1-0.3c-1.71-0.08-3.28-0.11-4.69-0.11c-0.66,0-1.08,0.13-1.28,0.38
		c-0.2,0.25-0.3,0.53-0.3,0.83c0,0.35,0.15,0.68,0.45,0.98c0.3,0.3,1.08,0.78,2.34,1.44l10.73,5.67c3.43,1.81,5.89,3.96,7.41,6.42
		S874.59,495.22,874.59,498.5z"/>
	<path d="M920.92,472.65c0,0.4-0.16,0.76-0.49,1.06c-0.33,0.3-0.69,0.45-1.1,0.45h-10.28v40.13c0,0.4-0.15,0.76-0.46,1.06
		c-0.3,0.3-0.66,0.45-1.06,0.45h-14.8c-0.41,0-0.76-0.15-1.06-0.45c-0.3-0.3-0.45-0.65-0.45-1.06v-40.13h-10.58
		c-0.4,0-0.76-0.15-1.06-0.45c-0.3-0.3-0.45-0.65-0.45-1.06v-11.49c0-0.4,0.15-0.76,0.45-1.06c0.3-0.3,0.65-0.45,1.06-0.45h38.7
		c0.4,0,0.77,0.15,1.1,0.45c0.33,0.3,0.49,0.66,0.49,1.06V472.65z"/>
	<path d="M521.02,589.55c0,0.29-0.1,0.5-0.29,0.65c-0.19,0.14-0.42,0.25-0.67,0.31c-0.51,0.1-1.02,0.18-1.54,0.26
		c-0.51,0.08-1.07,0.14-1.68,0.19c-0.61,0.05-1.3,0.09-2.06,0.12c-0.77,0.03-1.66,0.05-2.69,0.05c-1.47,0-2.96-0.22-4.46-0.67
		s-2.86-1.24-4.08-2.38c-1.22-1.14-2.21-2.66-2.98-4.56c-0.77-1.9-1.15-4.31-1.15-7.22v-6.67c0-2.94,0.38-5.37,1.15-7.27
		c0.77-1.9,1.76-3.42,2.98-4.54c1.22-1.12,2.58-1.9,4.08-2.35c1.5-0.45,2.99-0.67,4.46-0.67c1.54,0,3,0.09,4.39,0.26
		c1.39,0.18,2.62,0.35,3.67,0.5c0.51,0.06,0.77,0.27,0.77,0.63v2.45c0,0.16-0.03,0.29-0.1,0.38c-0.06,0.1-0.22,0.14-0.48,0.14h-0.14
		c-0.45-0.03-0.98-0.07-1.61-0.12c-0.62-0.05-1.3-0.1-2.02-0.14c-0.72-0.05-1.46-0.09-2.23-0.12c-0.77-0.03-1.5-0.05-2.21-0.05
		c-1.18,0-2.28,0.19-3.29,0.55c-1.01,0.37-1.89,0.98-2.64,1.82s-1.34,1.97-1.78,3.36c-0.43,1.39-0.65,3.11-0.65,5.16v6.67
		c0,2.02,0.22,3.72,0.65,5.11c0.43,1.39,1.02,2.51,1.78,3.36s1.63,1.46,2.64,1.85c1.01,0.38,2.1,0.58,3.29,0.58
		c0.67,0,1.38-0.02,2.14-0.05c0.75-0.03,1.49-0.06,2.21-0.1c0.72-0.03,1.38-0.07,1.99-0.12c0.61-0.05,1.14-0.09,1.58-0.12h0.19
		c0.51,0,0.77,0.26,0.77,0.77V589.55z"/>
	<path d="M585.3,576.07c0,2.66-0.32,4.94-0.96,6.84c-0.64,1.9-1.54,3.46-2.69,4.68c-1.15,1.22-2.52,2.11-4.11,2.69
		s-3.33,0.86-5.22,0.86s-3.63-0.29-5.22-0.86s-2.96-1.47-4.11-2.69c-1.15-1.22-2.06-2.78-2.72-4.68c-0.66-1.9-0.99-4.18-0.99-6.84
		v-6.19c0-2.66,0.33-4.94,0.99-6.84c0.66-1.9,1.56-3.46,2.72-4.68c1.15-1.22,2.52-2.11,4.11-2.69s3.33-0.87,5.22-0.87
		s3.63,0.29,5.22,0.87s2.96,1.47,4.11,2.69c1.15,1.22,2.05,2.78,2.69,4.68c0.64,1.9,0.96,4.18,0.96,6.84V576.07z M580.83,569.88
		c0-2.02-0.2-3.73-0.6-5.14c-0.4-1.41-0.97-2.56-1.7-3.46c-0.73-0.89-1.63-1.54-2.68-1.94s-2.23-0.6-3.54-0.6
		c-1.31,0-2.49,0.2-3.54,0.6c-1.05,0.4-1.96,1.05-2.71,1.94c-0.75,0.9-1.32,2.05-1.72,3.46c-0.4,1.41-0.6,3.12-0.6,5.14v6.19
		c0,2.02,0.2,3.73,0.6,5.14c0.4,1.41,0.97,2.56,1.7,3.46c0.73,0.89,1.63,1.54,2.7,1.94c1.07,0.4,2.26,0.6,3.57,0.6
		c1.31,0,2.49-0.2,3.54-0.6s1.95-1.05,2.68-1.94c0.73-0.9,1.3-2.05,1.7-3.46c0.4-1.41,0.6-3.12,0.6-5.14V569.88z"/>
	<path d="M654.61,589.84c0,0.26-0.1,0.48-0.29,0.67c-0.19,0.19-0.41,0.29-0.66,0.29h-2.33c-0.25,0-0.48-0.1-0.67-0.29
		c-0.19-0.19-0.29-0.42-0.29-0.67v-28.46c0-0.1-0.02-0.14-0.05-0.14s-0.06,0.03-0.1,0.1l-6.88,14.21c-0.26,0.48-0.53,0.83-0.82,1.06
		c-0.29,0.22-0.74,0.34-1.35,0.34h-2.21c-0.61,0-1.06-0.11-1.35-0.34c-0.29-0.22-0.56-0.58-0.82-1.06l-6.88-14.21
		c-0.03-0.06-0.06-0.1-0.1-0.1s-0.05,0.05-0.05,0.14v28.46c0,0.26-0.09,0.48-0.29,0.67c-0.19,0.19-0.41,0.29-0.66,0.29h-2.33
		c-0.25,0-0.48-0.1-0.67-0.29c-0.19-0.19-0.28-0.42-0.28-0.67v-33.31c0-0.38,0.13-0.71,0.4-0.98c0.27-0.27,0.59-0.41,0.97-0.41h3.09
		c0.45,0,0.78,0.06,0.99,0.17c0.21,0.11,0.39,0.33,0.55,0.65l7.94,16.46c0.16,0.35,0.35,0.53,0.58,0.53s0.42-0.18,0.58-0.53
		l7.94-16.46c0.16-0.32,0.34-0.54,0.55-0.65c0.21-0.11,0.54-0.17,0.99-0.17h3.09c0.38,0,0.7,0.14,0.97,0.41
		c0.27,0.27,0.4,0.6,0.4,0.98V589.84z"/>
	<path d="M718.35,565.84c0,2.02-0.34,3.7-1.01,5.06c-0.67,1.36-1.61,2.46-2.81,3.31c-1.2,0.85-2.62,1.46-4.25,1.82
		c-1.63,0.37-3.42,0.55-5.38,0.55c-0.77,0-1.6-0.03-2.5-0.07c-0.9-0.05-1.66-0.1-2.3-0.17v13.49c0,0.26-0.08,0.48-0.24,0.67
		c-0.16,0.19-0.37,0.29-0.62,0.29h-2.59c-0.26,0-0.46-0.1-0.62-0.29c-0.16-0.19-0.24-0.42-0.24-0.67v-33.46c0-0.7,0.38-1.1,1.15-1.2
		c1.02-0.13,2.26-0.22,3.7-0.29c1.44-0.06,2.86-0.1,4.27-0.1c1.95,0,3.74,0.19,5.38,0.55s3.05,0.96,4.25,1.78s2.14,1.89,2.81,3.22
		s1.01,2.95,1.01,4.87V565.84z M713.98,565.2c0-2.42-0.74-4.15-2.21-5.17c-1.47-1.02-3.76-1.53-6.86-1.53
		c-0.74,0-1.58,0.02-2.52,0.05c-0.94,0.03-1.7,0.08-2.28,0.14v14.02c0.29,0,0.64,0.02,1.06,0.05c0.42,0.03,0.85,0.05,1.3,0.07
		c0.45,0.02,0.89,0.03,1.32,0.05c0.43,0.02,0.81,0.02,1.13,0.02c3.29,0,5.63-0.56,7.01-1.67c1.38-1.12,2.06-2.92,2.06-5.41V565.2z"
		/>
	<path d="M783.2,590.04c0,0.51-0.27,0.77-0.82,0.77h-2.83c-0.22,0-0.4-0.07-0.53-0.21c-0.13-0.14-0.22-0.31-0.29-0.5l-3.12-11.04
		h-12.43l-3.07,11.04c-0.06,0.19-0.18,0.36-0.34,0.5c-0.16,0.14-0.34,0.21-0.53,0.21h-2.83c-0.54,0-0.82-0.26-0.82-0.77
		c0-0.16,0.02-0.27,0.05-0.34l8.88-31.25c0.19-0.74,0.47-1.34,0.84-1.8c0.37-0.46,0.78-0.83,1.22-1.1c0.45-0.27,0.92-0.46,1.42-0.58
		c0.5-0.11,0.97-0.17,1.42-0.17s0.91,0.05,1.39,0.14c0.48,0.1,0.94,0.28,1.39,0.55c0.45,0.27,0.86,0.64,1.22,1.1
		c0.37,0.46,0.65,1.06,0.84,1.8l8.88,31.3C783.18,589.76,783.2,589.88,783.2,590.04z M770.33,559.46c-0.16-0.58-0.46-0.86-0.91-0.86
		c-0.48,0-0.8,0.29-0.96,0.86l-4.37,15.79h10.61L770.33,559.46z"/>
	<path d="M847.13,589.41c0,0.38-0.13,0.71-0.4,0.98c-0.27,0.27-0.59,0.41-0.97,0.41h-2.94c-0.77,0-1.28-0.26-1.54-0.77l-14.83-28.18
		c-0.06-0.1-0.11-0.14-0.14-0.14s-0.05,0.05-0.05,0.14v28.03c0,0.26-0.08,0.47-0.24,0.65s-0.37,0.26-0.62,0.26h-2.5
		c-0.26,0-0.46-0.03-0.62-0.1c-0.16-0.06-0.24-0.22-0.24-0.48v-33.74c0-0.38,0.14-0.7,0.41-0.96c0.27-0.26,0.6-0.38,0.98-0.38h2.64
		c0.67,0,1.12,0.07,1.34,0.22c0.22,0.14,0.43,0.39,0.62,0.74l14.74,28.03l0.1,0.14c0.03,0,0.05-0.05,0.05-0.14v-28.08
		c0-0.26,0.08-0.47,0.24-0.65c0.16-0.17,0.36-0.26,0.62-0.26h2.52c0.25,0,0.46,0.09,0.62,0.26c0.16,0.18,0.24,0.39,0.24,0.65V589.41
		z"/>
	<path d="M910.97,555.81c0,0.16-0.05,0.34-0.14,0.53l-7.44,16.7c-0.45,0.96-0.88,1.68-1.3,2.16s-0.85,0.82-1.3,1.01v13.63
		c0,0.26-0.08,0.48-0.24,0.67c-0.16,0.19-0.37,0.29-0.62,0.29h-2.64c-0.26,0-0.46-0.1-0.62-0.29c-0.16-0.19-0.24-0.42-0.24-0.67
		v-13.63c-0.45-0.16-0.88-0.49-1.3-0.98c-0.42-0.49-0.85-1.22-1.3-2.18l-7.39-16.7c-0.1-0.19-0.14-0.37-0.14-0.53
		c0-0.45,0.27-0.67,0.82-0.67h2.93c0.16,0,0.33,0.07,0.5,0.22s0.3,0.3,0.36,0.46l6.62,15.55c0.26,0.54,0.46,0.89,0.62,1.03
		c0.16,0.14,0.32,0.22,0.48,0.22s0.32-0.07,0.48-0.22c0.16-0.14,0.37-0.49,0.62-1.03l6.67-15.55c0.06-0.16,0.17-0.31,0.31-0.46
		c0.14-0.14,0.31-0.22,0.5-0.22h2.93C910.7,555.14,910.97,555.36,910.97,555.81z"/>
</g>
</svg>
